<svg width="144" height="144" viewBox="0 0 144 144" fill="none" xmlns="http://www.w3.org/2000/svg">
<rect width="144" height="144" rx="20" fill="#091ED7"/>
<path d="M130.903 59.6549V95.839M36.5749 74.7316V95.839C36.5749 100.637 40.3017 105.239 46.9354 108.632C53.5692 112.025 62.5665 113.931 71.948 113.931C81.3295 113.931 90.3268 112.025 96.9606 108.632C103.594 105.239 107.321 100.637 107.321 95.839V74.7316M127.484 65.2159C128.539 64.7396 129.435 63.9571 130.06 62.9652C130.685 61.9734 131.012 60.8158 131 59.6359C130.988 58.456 130.638 57.3055 129.993 56.3271C129.348 55.3487 128.437 54.5853 127.372 54.1315L76.8415 30.5877C75.3054 29.8709 73.6367 29.5 71.9482 29.5C70.2598 29.5 68.5911 29.8709 67.055 30.5877L16.5304 54.1073C15.4808 54.5776 14.5879 55.3505 13.9609 56.3315C13.3339 57.3126 13 58.4593 13 59.6314C13 60.8036 13.3339 61.9503 13.9609 62.9313C14.5879 63.9124 15.4808 64.6853 16.5304 65.1555L67.055 88.7235C68.5911 89.4402 70.2598 89.8111 71.9482 89.8111C73.6367 89.8111 75.3054 89.4402 76.8415 88.7235L127.484 65.2159Z" stroke="white" stroke-width="10" stroke-linecap="round" stroke-linejoin="round"/>
</svg>
